# xmcd
#
# Track frame offsets:
#	150
#	31001
#	53922
#	87409
#	111934
#	130305
#	153593
#	180325
#	208401
#	227083
#	243779
#	275490
#	292982
#
# Disc length: 4471 seconds
#
# Revision: 1
# Processed by: cddbd v1.5.2PL0 Copyright (c) Steve Scherf et al.
# Submitted via: audiograbber 1.83.01
#
DISCID=b311750d
DTITLE=Spikedrivers - Live At High Barn
DYEAR=2008
DGENRE=Blues
TTITLE0=Ghost Train Shuffle
TTITLE1=Crazy Man
TTITLE2=Blue Trash
TTITLE3=Layin' Down Lincolns
TTITLE4=Two Left Feet
TTITLE5=Hold Me Still
TTITLE6=Grampa Was A Moonshiner
TTITLE7=Lil' Red Rooster
TTITLE8=Scarecrow Eyes
TTITLE9=Soul Searchin' Blues
TTITLE10=I Believe I'll Dust My Broom
TTITLE11=Young And Stupid
TTITLE12=Shake Your Hips
EXTD=
EXTT0=
EXTT1=
EXTT2=
EXTT3=
EXTT4=
EXTT5=
EXTT6=
EXTT7=
EXTT8=
EXTT9=
EXTT10=
EXTT11=
EXTT12=
PLAYORDER=
